<?xml version="1.0" encoding="UTF-8"?>
<svg id="Layer_1" data-name="Layer 1" xmlns="http://www.w3.org/2000/svg" viewBox="0 0 1080 1080">
  <path d="m843.23,200.88c-.03-12.33-.08-25.06-4.1-37.13-11.16-33.55-38.25-52.21-75.96-52.28-183.79-.34-367.6-.18-551.42-.1-11.34,0-22.65-.29-34.05,1.23-26.42,3.55-46.09,15.86-58.84,39.77-7.97,14.97-7.26,30.57-7.24,46.61.26,92.39.13,184.78.13,277.15,0,28.74.05,57.46,0,86.2-.13,69.19-.13,138.38-.57,207.57-.24,38.28,34.41,73.6,75.69,73.42,193.93-.84,387.85-.47,581.78-.29,26.89.03,46.56-12.57,61.56-33.31,11.65-16.12,13.17-35.35,13.17-54.5.1-184.78.16-369.54-.16-554.32Zm-239.31,307.51c-29.05.18-58.08.26-87.14-.08-6.4-.08-8.1,1.62-8,8,.39,24.48,1.36,49.04-.39,73.37-.76,10.32,1.28,21.95-6.77,31.56-7.47,8.94-22.47,15.47-32.95,12.28-11.99-3.66-22.24-17.09-22.37-29.39-.03-.97-.05-1.96-.05-2.93v-40.13c0-14.37-.37-28.74.16-43.09.26-7.21-1.15-9.9-9.25-9.75-28.72.57-57.43.24-86.15.18-15.68-.03-28.66-13.8-30.36-28.72-2.04-17.82,15.02-34.07,30.2-33.97,29.03.24,58.08-.21,87.11.24,7,.1,8.54-1.83,8.47-8.6-.39-29.03-.21-58.06-.13-87.11.05-14.61,12.62-29.03,27.12-29.63,14.87-.63,30.34,7.45,33.78,23.33,1.38,6.4,1.7,12.67,1.72,19.07.03,25.14.21,50.25-.16,75.38-.08,6.04,1.41,7.6,7.5,7.53,27.41-.37,54.82-.31,82.25-.1,15.02.1,25.92,6.06,32.69,20.75,9.15,19.88-9.3,41.68-27.3,41.81Z"/>
  <path d="m580.46,968.29c-113.92,0-227.84.04-341.76-.08-9.67,0-19.35,2.82-28.66-4.64-12.09-9.69-17.85-21.29-14.44-36,2.66-11.46,14.95-20.68,29.32-21.82,3.57-.28,7.18-.15,10.77-.15,219.35,0,438.71-.07,658.06.21,9.66.01,12.65-1.92,12.64-12.23-.33-220.97-.25-441.93-.25-662.9,0-20.95,5.2-29.93,23.53-34.11,16.53-3.77,34.05,6.03,37.54,23.5,1.38,6.91,1.56,14.15,1.56,21.24.08,228.47.06,456.95.07,685.42,0,7.08-.21,14.23-2.82,20.85-5.11,12.95-15.03,20.7-32.03,20.71-117.84,0-235.68,0-353.51,0Z"/>
</svg>