<?xml version="1.0" standalone="no"?>
<!DOCTYPE svg PUBLIC "-//W3C//DTD SVG 20010904//EN"
 "http://www.w3.org/TR/2001/REC-SVG-20010904/DTD/svg10.dtd">
<svg version="1.0" xmlns="http://www.w3.org/2000/svg"
 width="512.000000pt" height="512.000000pt" viewBox="0 0 512.000000 512.000000"
 preserveAspectRatio="xMidYMid meet">

<g transform="translate(0.000000,512.000000) scale(0.100000,-0.100000)"
fill="#000000" stroke="none">
<path d="M665 4736 c-147 -36 -252 -145 -284 -294 -16 -75 -16 -3049 0 -3124
33 -153 145 -265 297 -297 75 -16 3049 -16 3124 0 152 32 264 144 297 297 16
75 16 3049 0 3124 -33 153 -145 265 -297 297 -79 16 -3068 14 -3137 -3z m1663
-1083 c14 -10 35 -32 46 -47 20 -26 21 -43 24 -296 l3 -269 269 -3 c253 -3
270 -4 296 -24 53 -39 69 -71 69 -134 0 -63 -16 -95 -69 -134 -26 -20 -43 -21
-296 -24 l-269 -3 -3 -269 c-3 -253 -4 -270 -24 -296 -39 -53 -71 -69 -134
-69 -63 0 -95 16 -134 69 -20 26 -21 43 -24 296 l-3 269 -269 3 c-253 3 -270
4 -296 24 -53 39 -69 71 -69 134 0 63 16 95 69 134 26 20 43 21 297 24 l269 3
0 254 c0 155 4 265 11 282 14 37 47 72 84 89 40 19 119 12 153 -13z"/>
<path d="M4530 4309 c-29 -12 -67 -45 -83 -74 -9 -15 -13 -473 -17 -1780 l-5
-1760 -1762 -5 c-1760 -5 -1762 -5 -1789 -26 -98 -72 -96 -204 3 -265 l38 -24
1839 -3 c1226 -1 1851 1 1876 8 53 14 107 76 115 132 3 24 5 864 3 1868 l-3
1825 -24 38 c-39 64 -124 93 -191 66z"/>
</g>
</svg>
