<?xml version="1.0" encoding="UTF-8"?>
<svg id="Layer_1" data-name="Layer 1" xmlns="http://www.w3.org/2000/svg" viewBox="0 0 300 300">
  <rect x="96.29" y="142.3" width="17.56" height="17.56"/>
  <rect x="141.22" y="142.3" width="17.56" height="17.56"/>
  <rect x="186.15" y="142.3" width="17.56" height="17.56"/>
  <rect x="231.08" y="142.3" width="17.56" height="17.56"/>
  <rect x="51.36" y="184.64" width="17.56" height="17.56"/>
  <rect x="96.29" y="184.64" width="17.56" height="17.56"/>
  <rect x="141.22" y="184.64" width="17.56" height="17.56"/>
  <rect x="186.15" y="184.64" width="17.56" height="17.56"/>
  <rect x="51.36" y="226.99" width="17.56" height="17.56"/>
  <rect x="96.29" y="226.99" width="17.56" height="17.56"/>
  <rect x="141.22" y="226.99" width="17.56" height="17.56"/>
  <rect x="186.15" y="226.99" width="17.56" height="17.56"/>
  <rect x="231.08" y="226.99" width="17.56" height="17.56"/>
  <path d="m50.62,283.06c-8.88-.02-16.94-3.64-22.77-9.47-5.83-5.83-9.46-13.88-9.46-22.74V68.46c0-8.87,3.62-16.93,9.46-22.76,5.84-5.84,13.9-9.46,22.76-9.46h198.76c8.87,0,16.92,3.62,22.76,9.46,5.84,5.84,9.46,13.9,9.46,22.76v182.56c0,8.79-3.85,16.86-9.88,22.74-6.07,5.92-14.38,9.64-23.21,9.64v-.02l-197.9-.32h0Zm-16.88-15.36c4.34,4.35,10.32,7.04,16.88,7.06l197.9.32v-.02c6.6,0,12.84-2.8,17.41-7.26,4.48-4.37,7.34-10.33,7.34-16.78V68.46c0-6.57-2.69-12.54-7.02-16.87-4.33-4.33-10.3-7.02-16.87-7.02H50.62c-6.57,0-12.54,2.69-16.87,7.02-4.33,4.33-7.02,10.3-7.02,16.87v182.39c0,6.56,2.69,12.52,7.01,16.85Z"/>
  <path d="m22.56,112.09c-2.3,0-4.17-1.87-4.17-4.17s1.87-4.17,4.17-4.17h254.87c2.3,0,4.17,1.87,4.17,4.17s-1.87,4.17-4.17,4.17H22.56Z"/>
  <path d="m77.51,20.8c0-2.3,1.87-4.17,4.17-4.17s4.17,1.87,4.17,4.17v39.2c0,2.3-1.87,4.17-4.17,4.17s-4.17-1.87-4.17-4.17V20.8Z"/>
  <path d="m214.15,20.8c0-2.3,1.87-4.17,4.17-4.17s4.17,1.87,4.17,4.17v39.2c0,2.3-1.87,4.17-4.17,4.17s-4.17-1.87-4.17-4.17V20.8Z"/>
  <path d="m219.06,194.55c-.62-2.21.67-4.51,2.88-5.13,2.21-.62,4.51.67,5.13,2.88l1.06,3.78,23.67-15.37c1.92-1.25,4.5-.7,5.75,1.22,1.25,1.93.7,4.5-1.22,5.75l-28.23,18.33c-.39.28-.84.5-1.33.64-2.21.62-4.51-.67-5.13-2.88l-2.58-9.23Z"/>
</svg>