<?xml version="1.0" encoding="UTF-8"?>
<svg id="Layer_1" data-name="Layer 1" xmlns="http://www.w3.org/2000/svg" viewBox="0 0 300 300">
  <defs>
    <style>
      .cls-1 {
        fill: #1a1a1a;
        fill-rule: evenodd;
      }
    </style>
  </defs>
  <path class="cls-1" d="m68.04,260.66c-13.02,0-23.62-10.6-23.62-23.62s10.6-23.62,23.62-23.62,23.62,10.59,23.62,23.62-10.59,23.62-23.62,23.62h0Zm39.97,16.03v-77.17H26.58l.44,77.17h80.99Zm0-86.41v-55.7H26.11l.4,55.7h81.5Zm0-64.94v-55.7H25.64l.4,55.7h81.97Zm0-64.94V23.31H25.31l.27,37.09h82.44ZM17.78,253.34v27.98c0,2.55,2.07,4.62,4.62,4.62h256.94c2.56,0,4.62-2.07,4.62-4.62v-91.98c0-2.55-2.07-4.62-4.62-4.62h-97.44l65.25-65.25c1.81-1.81,1.81-4.73,0-6.54l-65.04-65.04c-1.73-1.74-4.8-1.74-6.53,0l-58.32,58.32V18.68c0-2.55-2.07-4.62-4.62-4.62H20.65c-2.57,0-4.64,2.09-4.62,4.66l1.75,234.62h0ZM117.26,118.66c.62-.22,1.21-.58,1.71-1.09l26.12-26.12,58.51,58.5-33.35,33.35-52.99-52.99v-11.66h0Zm0,24.73l46.45,46.45-46.45,46.45v-92.91h0Zm0,105.98l55.41-55.4h7.65v82.74h-63.06v-27.33h0Zm92.87-105.94l-58.5-58.5,27.22-27.22,58.5,58.5-27.22,27.22h0Zm-20.58,133.28v-82.74h46.55v82.74h-46.55Zm55.79,0v-82.74h29.38v82.74h-29.38Zm-177.3-54.03c-7.93,0-14.38,6.45-14.38,14.38s6.45,14.38,14.38,14.38,14.38-6.45,14.38-14.38-6.45-14.38-14.38-14.38Z"/>
</svg>