<?xml version="1.0" encoding="UTF-8"?>
<svg id="Layer_1" data-name="Layer 1" xmlns="http://www.w3.org/2000/svg" viewBox="0 0 2250 2250">
  <defs>
    <style>
      .cls-1 {
        fill: none;
        stroke: #fff;
        stroke-linecap: round;
        stroke-linejoin: round;
        stroke-width: 115.73px;
      }
    </style>
  </defs>
  <path class="cls-1" d="m78.84,1116.31h1406.94m302.67,0h382.7m-399.45,8.69c0,36.87-14.46,72.23-40.21,98.3-25.74,26.07-60.66,40.72-97.07,40.72-36.41,0-71.32-14.65-97.07-40.72-25.74-26.07-40.21-61.43-40.21-98.3,0-36.87,14.46-72.23,40.21-98.3,25.74-26.07,60.66-40.72,97.07-40.72,36.41,0,71.32,14.65,97.07,40.72,25.74,26.07,40.21,61.43,40.21,98.3ZM78.89,1759.27h501.8m307.86,0h1282.57m-1303.14,0c0,36.87-14.46,72.23-40.21,98.3-25.74,26.07-60.66,40.72-97.07,40.72-36.41,0-71.32-14.65-97.07-40.72-25.74-26.07-40.21-61.43-40.21-98.3,0-76.78,61.46-139.02,137.28-139.02,36.41,0,71.32,14.65,97.07,40.72,25.74,26.07,40.21,61.43,40.21,98.3ZM78.83,490.73h535.5m326.18,0h1230.65m-1267.05,0c0,36.87-14.46,72.23-40.21,98.3-25.74,26.07-60.66,40.72-97.07,40.72-36.41,0-71.32-14.65-97.07-40.72-25.74-26.07-40.21-61.43-40.21-98.3,0-76.78,61.46-139.02,137.28-139.02,75.82,0,137.28,62.24,137.28,139.02Z"/>
</svg>