<?xml version="1.0" encoding="UTF-8"?>
<svg id="Layer_1" data-name="Layer 1" xmlns="http://www.w3.org/2000/svg" viewBox="0 0 4000 4000">
  <path d="m1619.99,2266.98h501.26c308.56,0,590.44,155.25,754.07,415.31,30.71,48.84,95.3,63.57,144.03,32.75,48.78-30.71,63.46-95.19,32.75-144.03-147.31-234.07-372.52-398.31-631.04-470.79,269.26-178.91,447.29-484.69,447.29-831.46,0-550.16-447.6-997.76-997.76-997.76s-997.7,447.6-997.7,997.76c0,346.91,178.17,652.79,447.6,831.67-463.19,130.99-803.98,556.58-803.98,1061.08v142.78c0,157.06,110.88,291.91,263.12,320.69,354.8,69.01,721.89,104.03,1090.97,104.03h52.24c57.68,0,104.42-46.8,104.42-104.48s-46.74-104.48-104.42-104.48h-52.24c-355.76,0-709.37-33.66-1051.64-100.29-54.22-10.2-93.6-58.81-93.6-115.47v-142.78c0-493.27,401.31-894.53,894.64-894.53Zm-538.26-998.21c0-435.03,353.89-788.8,788.86-788.8s788.92,353.78,788.92,788.8-353.89,788.92-788.92,788.92-788.86-353.89-788.86-788.92Z"/>
  <path d="m3452.9,3293.97l-256.66-256.66c-40.79-40.79-106.86-40.79-147.65,0-40.79,40.79-40.79,106.97,0,147.77l78.3,78.3h-763.14c-57.68,0-104.42,46.8-104.42,104.48s46.74,104.48,104.42,104.48h763.14l-78.3,78.3c-40.79,40.79-40.79,106.97,0,147.77,20.4,20.4,47.08,30.6,73.83,30.6s53.43-10.2,73.83-30.6l256.66-256.66c40.79-40.79,40.79-106.97,0-147.77Z"/>
</svg>