<?xml version="1.0" encoding="UTF-8"?>
<svg id="Layer_1" data-name="Layer 1" xmlns="http://www.w3.org/2000/svg" viewBox="0 0 300 300">
  <path id="Design" d="m266.63,75.31h-16.43s0,0-.01,0h-67.87l30.58-7.42c8.29-2.01,14.86-7.7,18.02-15.62,3.17-7.92,2.33-16.57-2.28-23.74-4.62-7.17-12.15-11.51-20.67-11.9-8.52-.39-16.42,3.23-21.68,9.95l-36.28,46.33-36.28-46.33c-5.26-6.71-13.16-10.34-21.68-9.95-8.52.39-16.05,4.73-20.67,11.9l3.25,2.09-3.25-2.09c-4.62,7.17-5.45,15.82-2.28,23.74,3.17,7.92,9.73,13.61,18.02,15.62l30.58,7.42H49.82s0,0-.01,0h-16.43c-2.13,0-3.86,1.73-3.86,3.86v65.44c0,2.13,1.73,3.86,3.86,3.86h12.59v131.06c0,2.13,1.73,3.86,3.86,3.86h200.36c2.13,0,3.86-1.73,3.86-3.86v-131.06h12.59c2.13,0,3.86-1.73,3.86-3.86v-65.44c0-2.13-1.73-3.86-3.86-3.86Zm-95.34,200h-42.57V83.04h21.28s0,0,0,0h0s0,0,0,0h21.28v192.28Zm21.08-243.97c3.52-4.49,8.71-7.01,14.36-7.01.29,0,.59,0,.88.02,5.99.28,11.29,3.33,14.53,8.37h0c3.25,5.04,3.83,11.13,1.61,16.69-2.23,5.57-6.84,9.57-12.67,10.98l-51.18,12.41,32.47-41.46Zm-116.11,18.07c-2.23-5.57-1.64-11.65,1.61-16.69h0c3.25-5.04,8.54-8.09,14.53-8.37.29-.01.59-.02.88-.02,5.65,0,10.85,2.53,14.36,7.01l32.47,41.46-51.18-12.41c-5.83-1.41-10.45-5.42-12.67-10.98Zm-39.02,33.63h83.76v57.72H49.83s0,0-.01,0,0,0-.01,0h-12.57v-57.72Zm16.45,65.44h67.31v127.2H53.68v-127.2Zm192.64,127.2h-67.31v-127.2h67.31v127.2Zm16.45-134.92h-12.57s0,0-.01,0,0,0-.01,0h-71.16v-57.72h83.76v57.72Z"/>
</svg>