<?xml version="1.0" encoding="UTF-8"?>
<svg id="Layer_1" data-name="Layer 1" xmlns="http://www.w3.org/2000/svg" viewBox="0 0 300 300">
  <g id="_1068_Deliver_e-commerce_package_product_shipment" data-name="1068, Deliver, e-commerce, package, product, shipment">
    <g>
      <path d="m270.9,27.04H29.11c-2.94,0-5.47,2.5-5.47,5.41v239.41c0,2.92,2.52,5,5.47,5h241.79c2.94,0,5.46-2.5,5.46-5V32.45c0-2.92-2.52-5.41-5.46-5.41Zm-89.15,10.41v100.34l-29.01-16.24c-1.68-.83-3.78-.83-5.05,0l-29.01,16.24V37.45h63.07Zm84.1,229H34.57V37.45h73.59v109.09c0,1.66.84,3.74,2.52,4.58,1.68.83,3.78.83,5.05,0l34.06-19.15,34.06,19.15c1.68.83,3.79.83,5.05,0,1.68-.83,2.53-2.5,2.53-4.58V37.45h74.43v229h0Z"/>
      <path d="m103.11,203.99h-52.56c-2.94,0-5.05,2.5-5.05,5.41v41.64c0,2.92,2.52,5.41,5.05,5.41h52.56c2.94,0,5.47-2.5,5.47-5.41v-41.64c-.42-2.92-2.94-5.41-5.47-5.41Zm-5.47,41.64h-42.05v-31.23h42.05v31.23Z"/>
      <path d="m176.28,245.63h-47.1c-2.94,0-5.05,2.5-5.05,5,0,2.92,2.52,5.41,5.05,5.41h47.1c2.94,0,5.05-2.5,5.05-5.41.42-2.5-2.1-5-5.05-5Z"/>
      <path d="m129.19,235.22h42.05c2.94,0,5.46-2.5,5.46-5.41s-2.52-5.41-5.46-5.41h-42.05c-2.94,0-5.05,2.5-5.05,5.41s2.1,5.41,5.05,5.41Z"/>
      <path d="m129.19,214.4h15.56c2.94,0,5.47-2.5,5.47-5,0-2.92-2.52-5.41-5.47-5.41h-15.56c-2.94,0-5.05,2.5-5.05,5.41,0,2.5,2.1,5,5.05,5Z"/>
    </g>
  </g>
</svg>