<?xml version="1.0" encoding="UTF-8"?>
<svg id="Layer_1" data-name="Layer 1" xmlns="http://www.w3.org/2000/svg" viewBox="0 0 2000 2000">
  <defs>
    <style>
      .cls-1 {
        fill: #231f20;
      }
    </style>
  </defs>
  <g>
    <path class="cls-1" d="m1703.4,1059.96c20.35-1.29,37.21-16.26,40.89-36.32l79.98-435.04c2.24-12.23-.74-24.85-8.22-34.78-7.48-9.94-18.78-16.28-31.16-17.49l-298.61-29.19c-1.89,20.37-8.12,40.41-18.65,58.65l-15.74,27.27,276.23,27.02-64.96,353.39-916.03,58.09-147.61-521.84,256.11,25.05c-8.62-29.09-7.89-60.36,2.16-89.08l-284.25-27.8-59.54-210.55c-5.42-19.12-22.88-32.33-42.76-32.33h-251.8c-24.54,0-44.43,19.89-44.43,44.43s19.89,44.43,44.43,44.43h218.19l229.12,809.97-167.56,340.13c-6.78,13.77-5.98,30.07,2.13,43.1,8.1,13.03,22.37,20.96,37.72,20.96h1161.55c24.54,0,44.43-19.89,44.43-44.43s-19.89-44.43-44.43-44.43H610.46l132.16-268.28,960.78-60.92Z"/>
    <path class="cls-1" d="m724.51,1540.62c-78.4,0-142.19,63.79-142.19,142.19s63.79,142.19,142.19,142.19,142.19-63.79,142.19-142.19-63.79-142.19-142.19-142.19Zm0,195.51c-29.4,0-53.32-23.92-53.32-53.32s23.92-53.32,53.32-53.32,53.32,23.92,53.32,53.32-23.92,53.32-53.32,53.32Z"/>
    <path class="cls-1" d="m1474.62,1540.62c-78.41,0-142.19,63.79-142.19,142.19s63.78,142.19,142.19,142.19,142.19-63.79,142.19-142.19-63.79-142.19-142.19-142.19Zm0,195.51c-29.4,0-53.32-23.92-53.32-53.32s23.92-53.32,53.32-53.32,53.32,23.92,53.32,53.32-23.92,53.32-53.32,53.32Z"/>
  </g>
  <path class="cls-1" d="m1352.18,511c-1.98-3.44-5.65-5.55-9.62-5.55h-129.85V186.11c0-6.14-4.97-11.11-11.11-11.11h-66.65c-6.14,0-11.11,4.97-11.11,11.11v319.34h-129.85c-3.97,0-7.64,2.12-9.62,5.56-1.98,3.44-1.98,7.67,0,11.11l174.3,301.83c1.98,3.44,5.65,5.55,9.62,5.55s7.64-2.12,9.62-5.55l174.26-301.83c1.98-3.44,1.98-7.67,0-11.11Z"/>
</svg>