<?xml version="1.0" encoding="UTF-8"?>
<svg id="Layer_1" data-name="Layer 1" xmlns="http://www.w3.org/2000/svg" viewBox="0 0 300 300">
  <defs>
    <style>
      .cls-1 {
        fill: none;
        fill-rule: evenodd;
        stroke: #000;
        stroke-miterlimit: 10;
        stroke-width: 6px;
      }
    </style>
  </defs>
  <path class="cls-1" d="m238.37,246.65c3.57-3,8.89-2.53,11.89,1.03,3,3.57,2.53,8.89-1.04,11.89-3.57,3-8.89,2.53-11.89-1.04-3-3.57-2.53-8.89,1.04-11.89m-4.86,26.21c-4.84-4.17-9.34-10.04-13.49-16.21-8.33-12.4-14.74-22.51-21.52-32.99-17.44-26.99-27.62-42.29-63.18-24.86-12.8,6.68-24.53,4.93-35.21-5.27l109.83-92.23c8.2,12.28,7.9,24.14-.9,35.59-23.32,32.01-10.01,44.68,13.56,66.52,9.15,8.49,18.01,16.55,28.78,26.9,5.31,5.1,10.22,10.53,13.54,15.94,12.36,20.1-13.8,41.8-31.42,26.62Z"/>
  <path class="cls-1" d="m56.78,112.38l.04-.03.63.75c3.64,4.33,10.15,4.9,14.48,1.26h0c4.33-3.64,4.9-10.15,1.26-14.49l-.63-.75h0s-3.07-3.66-3.07-3.66c-3.64-4.33-3.07-10.85,1.26-14.48h0c4.33-3.64,10.85-3.07,14.48,1.26l3.07,3.66.63.75c3.64,4.33,10.15,4.9,14.49,1.26h0c4.33-3.64,4.9-10.15,1.26-14.48l-.63-.75.05-.04-1.97-2.34c-3.64-4.33-3.07-10.85,1.26-14.48h0c4.04-3.39,9.99-3.13,13.72.45l1.51,1.79c.24.29.5.56.76.82l.46.55.08-.07c3.75,3.1,9.33,3.2,13.18-.04h0c3.85-3.23,4.73-8.75,2.32-12.97l.12-.1-.82-.98c-.11-.15-.22-.29-.34-.43l-5.32-6.33c-3.25-4.32-2.58-10.53,1.61-14.05h0c4.33-3.64,10.85-3.07,14.48,1.26l6.14,7.31,2.68,3.19,47.11,56.1-110.25,92.59-47.74-56.85-2.05-2.44-6.77-8.06c-3.64-4.33-3.07-10.85,1.26-14.48h0c4.33-3.64,10.85-3.07,14.48,1.26l6.77,8.06Z"/>
</svg>