<?xml version="1.0" encoding="UTF-8"?>
<svg id="Layer_1" data-name="Layer 1" xmlns="http://www.w3.org/2000/svg" viewBox="0 0 300 300">
  <path d="m247.92,63.83h-11.75v-11.75c0-10.8-8.78-19.58-19.58-19.58H52.08c-10.8,0-19.58,8.79-19.58,19.58v164.51c0,10.8,8.78,19.58,19.58,19.58h11.75v11.75c0,10.8,8.78,19.58,19.58,19.58h164.51c10.8,0,19.58-8.78,19.58-19.58V83.41c0-10.8-8.78-19.58-19.58-19.58ZM48.16,216.59V52.08c0-2.16,1.76-3.92,3.92-3.92h164.51c2.16,0,3.92,1.76,3.92,3.92v164.51c0,2.16-1.76,3.92-3.92,3.92H52.08c-2.16,0-3.92-1.76-3.92-3.92Zm203.68,31.34c0,2.16-1.76,3.92-3.92,3.92H83.41c-2.16,0-3.92-1.76-3.92-3.92v-11.75h137.09c10.8,0,19.58-8.78,19.58-19.58V79.5h11.75c2.16,0,3.92,1.76,3.92,3.92v164.51Z"/>
  <path d="m187.33,102.86l-23.97-3.48-10.72-21.71h0c-3.47-7.03-10.48-11.39-18.31-11.39s-14.85,4.36-18.31,11.39l-10.72,21.71-23.97,3.48c-7.75,1.12-14.07,6.45-16.49,13.9-2.43,7.45-.44,15.48,5.16,20.95l17.34,16.9-4.09,23.87c-1.33,7.71,1.78,15.37,8.12,19.97,6.36,4.61,14.58,5.2,21.53,1.55l21.43-11.27,21.44,11.27c3.01,1.59,6.27,2.37,9.52,2.37,4.22,0,8.41-1.32,12-3.92,6.33-4.61,9.45-12.26,8.12-19.97l-4.09-23.87,17.34-16.9c5.61-5.47,7.59-13.49,5.16-20.94-2.42-7.45-8.74-12.78-16.49-13.9Zm.38,23.62l-20.29,19.78c-1.84,1.8-2.69,4.4-2.25,6.93l4.79,27.93c.45,2.63-1.18,4.13-1.9,4.65-.72.52-2.67,1.61-5.01.37l-25.08-13.19c-1.15-.6-2.39-.9-3.65-.9s-2.5.3-3.65.9l-25.07,13.19c-2.36,1.24-4.3.15-5.02-.37-.72-.52-2.35-2.02-1.9-4.65l4.79-27.93c.44-2.54-.41-5.13-2.25-6.93l-20.29-19.77c-1.91-1.87-1.48-4.04-1.21-4.88.28-.85,1.2-2.85,3.84-3.24l28.05-4.08c2.56-.37,4.76-1.97,5.9-4.29l12.54-25.4c1.19-2.4,3.38-2.65,4.27-2.65s3.08.26,4.27,2.65l12.54,25.41c1.14,2.31,3.34,3.92,5.9,4.29l28.05,4.08c2.64.38,3.56,2.39,3.84,3.24s.7,3.02-1.21,4.88Z"/>
</svg>