<?xml version="1.0" encoding="UTF-8"?>
<svg id="Layer_1" data-name="Layer 1" xmlns="http://www.w3.org/2000/svg" viewBox="0 0 300 300">
  <defs>
    <style>
      .cls-1 {
        fill: #1a1a1a;
      }
    </style>
  </defs>
  <path class="cls-1" d="m273.01,158.19c0-65.25-53.09-118.34-118.34-118.34s-118.34,53.09-118.34,118.34c0,33.73,14.19,64.21,36.9,85.78l-25.7,37.2c-1.91,2.76-1.22,6.54,1.54,8.45,1.05.73,2.26,1.08,3.45,1.08,1.93,0,3.82-.92,5-2.62l24.99-36.17c19.99,15.42,45.02,24.62,72.16,24.62s51.17-8.82,70.96-23.69l24.35,35.24c1.18,1.71,3.07,2.62,5,2.62,1.19,0,2.39-.35,3.45-1.08,2.76-1.91,3.45-5.69,1.54-8.45l-24.98-36.16c23.37-21.63,38.02-52.55,38.02-86.82Zm-224.53,0c0-58.55,47.64-106.19,106.19-106.19s106.19,47.64,106.19,106.19-47.64,106.19-106.19,106.19-106.19-47.64-106.19-106.19Z"/>
  <path class="cls-1" d="m270.27,99.02c10.07-9.47,16.36-22.91,16.36-37.82,0-28.66-23.24-51.9-51.9-51.9-15.63,0-29.64,6.91-39.15,17.83,36.25,12.34,60.98,36.47,74.7,71.89Z"/>
  <path class="cls-1" d="m104.43,27.13c-9.51-10.93-23.53-17.83-39.15-17.83-28.66,0-51.9,23.24-51.9,51.9,0,14.91,6.29,28.35,16.36,37.82,13.71-35.41,38.44-59.55,74.7-71.89Z"/>
  <path class="cls-1" d="m157.03,79.42c-3.35,0-6.07,2.72-6.07,6.07v74.91h-51.29c-3.35,0-6.07,2.72-6.07,6.07s2.72,6.07,6.07,6.07h57.36c3.35,0,6.07-2.72,6.07-6.07,0-.07,0-.14-.01-.21,0-.07.01-.14.01-.21v-80.56c0-3.35-2.72-6.07-6.07-6.07Z"/>
</svg>