<?xml version="1.0" encoding="UTF-8"?>
<svg id="Layer_1" data-name="Layer 1" xmlns="http://www.w3.org/2000/svg" xmlns:xlink="http://www.w3.org/1999/xlink" viewBox="0 0 375 375">
  <defs>
    <style>
      .cls-1 {
        fill: #fff;
      }

      .cls-2 {
        font-family: BrownSugar, 'Brown Sugar';
        font-size: 140.39px;
      }

      .cls-3 {
        clip-path: url(#clippath-2);
      }

      .cls-4 {
        clip-path: url(#clippath-6);
      }

      .cls-5 {
        clip-path: url(#clippath-7);
      }

      .cls-6 {
        clip-path: url(#clippath-1);
      }

      .cls-7 {
        clip-path: url(#clippath-4);
      }

      .cls-8 {
        font-size: 24.24px;
      }

      .cls-8, .cls-9, .cls-10 {
        font-family: ABeeZee-Regular, ABeeZee;
      }

      .cls-11, .cls-12 {
        fill: #b48f57;
      }

      .cls-13 {
        clip-path: url(#clippath-9);
      }

      .cls-14 {
        clip-path: url(#clippath);
      }

      .cls-12 {
        fill-rule: evenodd;
      }

      .cls-15, .cls-16 {
        fill: none;
      }

      .cls-9 {
        font-size: 24.24px;
      }

      .cls-17 {
        clip-path: url(#clippath-3);
      }

      .cls-18 {
        clip-path: url(#clippath-8);
      }

      .cls-10 {
        font-size: 24.24px;
      }

      .cls-19 {
        clip-path: url(#clippath-5);
      }

      .cls-16 {
        stroke: #000;
        stroke-width: 36.16px;
      }
    </style>
    <clipPath id="clippath">
      <rect class="cls-15" x="-49.37" y="-34.71" width="475.78" height="485.29"/>
    </clipPath>
    <clipPath id="clippath-1">
      <rect class="cls-15" x="-49.37" y="-34.71" width="475.78" height="475.78"/>
    </clipPath>
    <clipPath id="clippath-2">
      <rect class="cls-15" x="-49.37" y="-34.71" width="475.78" height="475.78"/>
    </clipPath>
    <clipPath id="clippath-3">
      <rect class="cls-15" x="42.92" y="61.31" width="291.17" height="291.17"/>
    </clipPath>
    <clipPath id="clippath-4">
      <rect class="cls-15" x="42.92" y="61.31" width="291.17" height="291.17"/>
    </clipPath>
    <clipPath id="clippath-5">
      <circle class="cls-15" cx="188.51" cy="206.89" r="145.59"/>
    </clipPath>
    <clipPath id="clippath-6">
      <rect class="cls-15" x=".45" y="43.88" width="376.13" height="163.02"/>
    </clipPath>
    <clipPath id="clippath-7">
      <rect class="cls-15" x="-49.37" y="-34.71" width="475.78" height="475.78"/>
    </clipPath>
    <clipPath id="clippath-8">
      <rect class="cls-15" x="160.04" y="104.04" width="57.09" height="39.97"/>
    </clipPath>
    <clipPath id="clippath-9">
      <rect class="cls-15" x="-49.37" y="-34.71" width="475.78" height="475.78"/>
    </clipPath>
  </defs>
  <g class="cls-14">
    <g class="cls-6">
      <g class="cls-3">
        <g class="cls-17">
          <g class="cls-7">
            <g class="cls-19">
              <circle class="cls-16" cx="188.51" cy="206.89" r="145.59"/>
            </g>
          </g>
        </g>
      </g>
    </g>
  </g>
  <g class="cls-4">
    <rect class="cls-1" x=".45" y="43.88" width="376.13" height="163.02"/>
  </g>
  <g class="cls-5">
    <text class="cls-8" transform="translate(67.6 122.21) rotate(-45.66)"><tspan x="0" y="0">S</tspan></text>
    <text class="cls-8" transform="translate(90.83 100.77) rotate(-33.65)"><tspan x="0" y="0">O</tspan></text>
    <text class="cls-8" transform="translate(122.07 82.44) rotate(-21.21)"><tspan x="0" y="0">U</tspan></text>
    <text class="cls-9" transform="translate(154.5 71.91) rotate(-9.43)"><tspan x="0" y="0">K</tspan></text>
    <text class="cls-10" transform="translate(186.93 68.49) rotate(.83)"><tspan x="0" y="0"> </tspan></text>
    <text class="cls-8" transform="translate(212.2 70.11) rotate(11.36)"><tspan x="0" y="0">A</tspan></text>
    <text class="cls-10" transform="translate(245.15 78.68) rotate(23.2)"><tspan x="0" y="0">R</tspan></text>
    <text class="cls-8" transform="translate(274.58 93.31) rotate(34.53)"><tspan x="0" y="0">T</tspan></text>
    <text class="cls-8" transform="translate(299.23 112.37) rotate(45.66)"><tspan x="0" y="0">S</tspan></text>
  </g>
  <g class="cls-18">
    <path class="cls-12" d="m162.35,144.49v.08c-1.52-3.53-2.36-7.41-2.36-11.52,0-15.91,12.79-28.85,28.52-28.85s28.52,12.93,28.52,28.85c0,4.74-1.13,9.2-3.14,13.14.04-.57.06-1.13.06-1.7,0-14.15-11.56-25.62-25.81-25.62s-25.79,11.5-25.79,25.62Z"/>
    <path class="cls-11" d="m214.05,144.49c0-14.19-11.62-25.73-25.89-25.73s-25.66,11.31-25.89,25.32c-1.44-3.49-2.16-7.21-2.16-11.03,0-15.85,12.75-28.74,28.42-28.74s28.4,12.89,28.4,28.74c0,4.43-.99,8.71-2.89,12.67.02-.41.02-.82.02-1.23Zm-.06,1.77c2.09-4.13,3.14-8.56,3.14-13.2,0-15.95-12.83-28.95-28.62-28.95s-28.62,13-28.62,28.95c0,4.02.8,7.9,2.38,11.56.02.04.06.06.12.06.04,0,.08-.06.08-.1v-.08c0-14.08,11.52-25.52,25.68-25.52s25.71,11.46,25.71,25.52c0,.55-.02,1.13-.06,1.7,0,.04.02.08.08.1.04.02.08,0,.1-.04Z"/>
  </g>
  <g class="cls-13">
    <text class="cls-2" transform="translate(102.51 274.54)"><tspan x="0" y="0">S</tspan></text>
    <text class="cls-2" transform="translate(184.5 274.54)"><tspan x="0" y="0">A</tspan></text>
  </g>
</svg>