<?xml version="1.0" encoding="UTF-8"?>
<svg id="Layer_1" data-name="Layer 1" xmlns="http://www.w3.org/2000/svg" viewBox="0 0 375 375">
  <defs>
    <style>
      .cls-1 {
        fill: #b38e57;
      }

      .cls-2 {
        fill: #d8cbc3;
      }
    </style>
  </defs>
  <path class="cls-2" d="m264.06,263.41c-1.1,27.77-13.7,49.04-38.43,61.02-34.09,16.51-68.57,2.94-84.26-32.79-5.3-12.12-7.19-24.87-7.15-38.15.07-42.65.04-85.33.04-128.02v-5.5h110.77c9.57,14.58,12.63,30.67,15.02,46.92,4.66,32.01,5.3,64.32,4.02,96.52Z"/>
  <path d="m278.45,261.44c-.25,31.35-12.05,57.16-39.94,73.63-39.94,23.55-94.01,14.84-122.94-19.55-11.88-14.09-18.76-30.56-18.93-48.9-.46-52.53-.21-105.02-.25-157.55,0-.5.12-1,.25-1.92h26.43v6.17c0,47.86.04,95.72-.04,143.54-.04,14.88,2.17,29.18,8.38,42.77,18.39,40.06,58.78,55.28,98.72,36.77,28.97-13.42,43.73-37.27,45.03-68.41,1.5-36.1.75-72.33-4.71-108.23-2.79-18.22-6.38-36.27-17.59-52.61-.04-.08-.12-.17-.17-.25h25.6v.25c.08,1.67.25,3.21.25,4.71,0,49.86.29,99.72-.08,149.58Z"/>
  <path class="cls-1" d="m228.03,87.18c-2.66-21.46-17.71-37.07-36.35-38.81-19-1.78-40.33,8.65-45.87,35.25-5.88-16.19.65-36.94,15.02-47.74,16.2-12.18,36.52-12.25,52.9-.2,15.24,11.21,21.28,32.09,14.3,51.51Z"/>
</svg>