<?xml version="1.0" standalone="no"?>
<!DOCTYPE svg PUBLIC "-//W3C//DTD SVG 20010904//EN"
 "http://www.w3.org/TR/2001/REC-SVG-20010904/DTD/svg10.dtd">
<svg version="1.0" xmlns="http://www.w3.org/2000/svg"
 width="120.000000pt" height="150.000000pt" viewBox="0 0 120.000000 150.000000"
 preserveAspectRatio="xMidYMid meet">

<g transform="translate(0.000000,150.000000) scale(0.100000,-0.100000)"
fill="#000000" stroke="none">
<path d="M474 1305 c-33 -7 -92 -29 -131 -48 -279 -141 -390 -479 -251 -765
65 -135 225 -260 379 -297 281 -66 573 98 670 375 31 87 33 257 5 340 -36 104
-77 174 -145 240 -142 141 -333 197 -527 155z m241 -60 c271 -69 440 -333 381
-596 -25 -114 -57 -173 -139 -254 -208 -208 -506 -208 -713 -1 -162 162 -197
372 -97 584 35 76 149 189 226 227 112 54 231 68 342 40z"/>
<path d="M519 1057 c-58 -39 -81 -83 -77 -148 7 -95 67 -152 159 -153 90 0
150 58 157 151 3 49 0 64 -20 93 -54 80 -149 104 -219 57z"/>
<path d="M364 710 c-16 -5 -41 -21 -55 -36 -21 -23 -24 -34 -24 -107 0 -45 3
-83 8 -84 4 -2 146 -3 317 -3 l310 0 0 69 c0 87 -13 122 -53 147 -29 17 -54
19 -252 21 -121 1 -234 -2 -251 -7z"/>
</g>
</svg>
