<?xml version="1.0" standalone="no"?>
<!DOCTYPE svg PUBLIC "-//W3C//DTD SVG 20010904//EN"
 "http://www.w3.org/TR/2001/REC-SVG-20010904/DTD/svg10.dtd">
<svg version="1.0"
	xmlns="http://www.w3.org/2000/svg" width="120.000000pt" height="120.000000pt" viewBox="0 0 120.000000 120.000000" preserveAspectRatio="xMidYMid meet">

	<g transform="translate(0.000000,120.000000) scale(0.100000,-0.100000)" fill="" stroke="none">
		<path d="M515 1146 c-73 -32 -135 -113 -135 -175 0 -54 -8 -61 -66 -61 -48 0
-59 -4 -91 -34 l-37 -33 -16 -349 c-11 -221 -14 -361 -8 -382 6 -21 21 -40 41
-52 30 -19 53 -20 397 -20 344 0 367 1 397 20 20 12 35 31 41 52 12 46 -20
706 -36 735 -24 43 -61 63 -118 63 l-53 0 -6 38 c-17 97 -56 156 -128 191 -50
24 -135 27 -182 7z m164 -83 c40 -30 62 -67 68 -111 l6 -42 -152 0 -151 0 0
24 c0 57 40 117 95 142 38 18 100 11 134 -13z m244 -235 c15 -11 19 -56 33
-351 12 -264 13 -341 4 -353 -19 -22 -702 -21 -720 1 -10 12 -10 81 4 352 9
186 19 340 24 344 14 14 60 16 348 18 218 1 294 -2 307 -11z"/>
		<path d="M395 746 c-23 -17 -15 -65 20 -118 61 -93 200 -123 298 -65 82 49
136 161 89 186 -25 13 -42 0 -66 -51 -58 -119 -214 -119 -272 1 -25 52 -44 65
-69 47z"/>
	</g>
</svg>
