<?xml version="1.0" standalone="no"?>
<!DOCTYPE svg PUBLIC "-//W3C//DTD SVG 20010904//EN"
 "http://www.w3.org/TR/2001/REC-SVG-20010904/DTD/svg10.dtd">
<svg version="1.0"
	xmlns="http://www.w3.org/2000/svg" width="120.000000pt" height="120.000000pt" viewBox="0 0 120.000000 120.000000" preserveAspectRatio="xMidYMid meet">

	<g transform="translate(0.000000,120.000000) scale(0.100000,-0.100000)" fill="" stroke="none">
		<path d="M235 1037 c-63 -21 -97 -42 -142 -89 -63 -65 -88 -127 -88 -223 0
-134 12 -151 304 -443 139 -139 261 -257 271 -262 27 -15 68 8 119 66 47 54
54 94 19 118 -32 22 -42 20 -83 -16 l-36 -31 -220 219 c-134 133 -227 235
-239 260 -62 127 24 280 164 292 79 6 119 -11 201 -89 46 -44 81 -69 95 -69
15 0 48 23 91 65 37 36 83 72 103 80 127 53 273 -34 284 -169 7 -89 -9 -117
-144 -257 -68 -70 -124 -133 -124 -141 0 -29 31 -58 62 -58 27 0 49 17 150
119 147 148 173 196 173 316 -1 102 -27 166 -96 230 -73 68 -127 90 -224 90
-95 0 -164 -28 -233 -94 l-42 -41 -43 42 c-82 80 -223 117 -322 85z"/>
	</g>
</svg>
